<svg xmlns="http://www.w3.org/2000/svg" xmlns:xlink="http://www.w3.org/1999/xlink" width="500" zoomAndPan="magnify" viewBox="0 0 375 374.999991" height="500" preserveAspectRatio="xMidYMid meet" version="1.0"><defs><g/><clipPath id="1008f0aa10"><path d="M 24 166 L 119 166 L 119 223.726562 L 24 223.726562 Z M 24 166 " clip-rule="nonzero"/></clipPath><clipPath id="fc5bd81972"><path d="M 58 150.976562 L 84 150.976562 L 84 176 L 58 176 Z M 58 150.976562 " clip-rule="nonzero"/></clipPath></defs><g fill="#000000" fill-opacity="1"><g transform="translate(136.799633, 219.671791)"><g><path d="M 46.25 -32.375 C 47.4375 -31.84375 48.625 -30.773438 49.8125 -29.171875 C 52.1875 -26.035156 53.375 -21.859375 53.375 -16.640625 C 53.375 -10.285156 50.613281 -5.597656 45.09375 -2.578125 C 42.3125 -1.097656 39.523438 -0.238281 36.734375 0 L 5.34375 0 L 5.34375 -57.8125 L 32.109375 -57.8125 C 34.304688 -57.8125 36.648438 -57.335938 39.140625 -56.390625 C 44.054688 -54.492188 47.195312 -51.203125 48.5625 -46.515625 C 49.570312 -43.140625 49.484375 -39.757812 48.296875 -36.375 C 47.703125 -34.71875 47.019531 -33.382812 46.25 -32.375 Z M 19.21875 -47.0625 L 19.21875 -34.15625 L 31.578125 -34.15625 C 33.359375 -34.15625 34.898438 -34.78125 36.203125 -36.03125 C 37.453125 -37.269531 38.078125 -38.78125 38.078125 -40.5625 C 38.078125 -42.394531 37.453125 -43.9375 36.203125 -45.1875 C 34.898438 -46.4375 33.359375 -47.0625 31.578125 -47.0625 Z M 42.515625 -17.078125 C 42.515625 -18.859375 41.894531 -20.398438 40.65625 -21.703125 C 39.40625 -22.953125 37.890625 -23.578125 36.109375 -23.578125 L 19.21875 -23.578125 L 19.21875 -10.671875 L 36.109375 -10.671875 C 37.890625 -10.671875 39.40625 -11.296875 40.65625 -12.546875 C 41.894531 -13.785156 42.515625 -15.296875 42.515625 -17.078125 Z M 42.515625 -17.078125 "/></g></g></g><g fill="#000000" fill-opacity="1"><g transform="translate(192.842583, 219.671791)"><g><path d="M 35.578125 -45.984375 L 48.03125 -45.984375 L 48.03125 0 L 35.578125 0 L 35.578125 -5.15625 C 33.023438 -1.832031 29.171875 -0.171875 24.015625 -0.171875 C 17.734375 -0.117188 12.335938 -2.316406 7.828125 -6.765625 C 3.316406 -11.210938 1.035156 -16.609375 0.984375 -22.953125 C 0.921875 -29.234375 3.113281 -34.628906 7.5625 -39.140625 C 12.007812 -43.648438 17.40625 -45.929688 23.75 -45.984375 C 28.96875 -45.984375 32.910156 -44.296875 35.578125 -40.921875 Z M 31.84375 -15.125 C 34.039062 -17.3125 35.140625 -19.976562 35.140625 -23.125 C 35.140625 -26.332031 34.007812 -29.003906 31.75 -31.140625 C 29.5 -33.390625 26.863281 -34.453125 23.84375 -34.328125 C 20.695312 -34.328125 18.023438 -33.234375 15.828125 -31.046875 C 13.640625 -28.847656 12.546875 -26.175781 12.546875 -23.03125 C 12.546875 -19.945312 13.671875 -17.28125 15.921875 -15.03125 C 18.117188 -12.832031 20.785156 -11.734375 23.921875 -11.734375 C 27.128906 -11.859375 29.769531 -12.988281 31.84375 -15.125 Z M 31.84375 -15.125 "/></g></g></g><g fill="#000000" fill-opacity="1"><g transform="translate(243.548112, 219.671791)"><g><path d="M 38.515625 0 L 38.515625 -5.25 C 34.242188 -1.75 29.410156 0 24.015625 0 C 17.734375 0.0625 12.335938 -2.128906 7.828125 -6.578125 C 3.316406 -11.023438 1.035156 -16.421875 0.984375 -22.765625 C 0.921875 -29.054688 3.113281 -34.457031 7.5625 -38.96875 C 12.007812 -43.46875 17.40625 -45.75 23.75 -45.8125 C 29.257812 -45.8125 34.148438 -44.0625 38.421875 -40.5625 L 38.421875 -62.09375 L 50.875 -62.09375 L 50.96875 0 Z M 31.9375 -14.9375 C 34.125 -17.132812 35.21875 -19.804688 35.21875 -22.953125 C 35.101562 -26.148438 33.976562 -28.816406 31.84375 -30.953125 C 29.59375 -33.085938 26.925781 -34.15625 23.84375 -34.15625 C 20.695312 -34.15625 18.023438 -33.054688 15.828125 -30.859375 C 13.640625 -28.429688 12.570312 -25.765625 12.625 -22.859375 C 12.625 -19.710938 13.722656 -17.046875 15.921875 -14.859375 C 18.117188 -12.660156 20.785156 -11.5625 23.921875 -11.5625 C 27.128906 -11.675781 29.800781 -12.800781 31.9375 -14.9375 Z M 31.9375 -14.9375 "/></g></g></g><g fill="#000000" fill-opacity="1"><g transform="translate(297.189221, 219.671791)"><g><path d="M 15.125 -38.96875 C 16.132812 -41.8125 17.820312 -43.796875 20.1875 -44.921875 C 22.5 -46.046875 25.96875 -46.609375 30.59375 -46.609375 L 30.59375 -33.890625 C 26.09375 -33.890625 22.328125 -32.347656 19.296875 -29.265625 C 16.515625 -26.535156 15.125 -23.539062 15.125 -20.28125 L 15.125 0 L 2.671875 0 L 2.671875 -45.8125 L 15.125 -45.8125 Z M 15.125 -38.96875 "/></g></g></g><g fill="#48faaa" fill-opacity="1"><g transform="translate(329.116023, 219.671791)"><g><path d="M 15.125 0 L 2.671875 0 L 2.671875 -12.453125 L 15.125 -12.453125 Z M 15.125 0 "/></g></g></g><g clip-path="url(#1008f0aa10)"><path fill="#000000" d="M 118.441406 166.242188 C 116.957031 166.394531 115.480469 166.609375 114.015625 166.886719 C 112.550781 167.167969 111.101562 167.507812 109.664062 167.910156 C 108.226562 168.3125 106.8125 168.773438 105.414062 169.296875 C 104.015625 169.820312 102.644531 170.402344 101.296875 171.042969 C 99.949219 171.679688 98.632812 172.378906 97.34375 173.128906 C 96.058594 173.882812 94.804688 174.6875 93.585938 175.546875 C 92.367188 176.40625 91.1875 177.3125 90.042969 178.273438 C 88.902344 179.234375 87.804688 180.238281 86.75 181.292969 C 85.695312 182.34375 84.683594 183.441406 83.722656 184.582031 C 82.761719 185.71875 81.847656 186.898438 80.988281 188.113281 C 80.125 189.332031 79.320312 190.582031 78.5625 191.867188 C 77.808594 193.152344 77.109375 194.46875 76.46875 195.8125 C 75.828125 197.160156 75.242188 198.527344 74.71875 199.921875 C 74.191406 201.316406 73.726562 202.734375 73.324219 204.167969 C 72.917969 205.601562 72.574219 207.050781 72.292969 208.515625 C 72.015625 209.976562 71.796875 211.449219 71.640625 212.933594 C 71.484375 211.449219 71.269531 209.976562 70.988281 208.515625 C 70.707031 207.050781 70.363281 205.601562 69.960938 204.167969 C 69.554688 202.734375 69.089844 201.316406 68.5625 199.921875 C 68.039062 198.527344 67.457031 197.160156 66.8125 195.8125 C 66.171875 194.46875 65.472656 193.152344 64.71875 191.867188 C 63.964844 190.582031 63.15625 189.332031 62.292969 188.113281 C 61.433594 186.898438 60.519531 185.71875 59.558594 184.582031 C 58.597656 183.441406 57.589844 182.34375 56.53125 181.292969 C 55.476562 180.238281 54.378906 179.234375 53.238281 178.273438 C 52.097656 177.3125 50.914062 176.40625 49.695312 175.546875 C 48.476562 174.6875 47.222656 173.882812 45.9375 173.128906 C 44.648438 172.378906 43.332031 171.679688 41.984375 171.042969 C 40.636719 170.402344 39.265625 169.820312 37.867188 169.296875 C 36.46875 168.773438 35.054688 168.3125 33.617188 167.910156 C 32.179688 167.507812 30.730469 167.167969 29.265625 166.886719 C 27.800781 166.609375 26.324219 166.394531 24.839844 166.242188 C 24.664062 167.949219 24.574219 169.660156 24.566406 171.375 C 24.558594 173.089844 24.636719 174.804688 24.796875 176.511719 C 24.957031 178.21875 25.203125 179.917969 25.53125 181.601562 C 25.855469 183.285156 26.265625 184.949219 26.757812 186.59375 C 27.25 188.238281 27.820312 189.855469 28.472656 191.441406 C 29.121094 193.03125 29.847656 194.582031 30.652344 196.101562 C 31.453125 197.617188 32.328125 199.089844 33.277344 200.523438 C 34.226562 201.953125 35.242188 203.335938 36.324219 204.664062 C 37.410156 205.996094 38.554688 207.273438 39.765625 208.492188 C 40.972656 209.710938 42.238281 210.867188 43.5625 211.960938 C 44.886719 213.054688 46.257812 214.082031 47.683594 215.042969 C 49.105469 216 50.574219 216.890625 52.085938 217.703125 C 53.597656 218.519531 55.144531 219.261719 56.726562 219.921875 C 58.3125 220.585938 59.925781 221.171875 61.566406 221.675781 C 63.207031 222.183594 64.871094 222.605469 66.554688 222.949219 C 68.238281 223.292969 69.933594 223.550781 71.640625 223.726562 C 73.347656 223.550781 75.046875 223.292969 76.726562 222.949219 C 78.410156 222.605469 80.074219 222.183594 81.714844 221.675781 C 83.355469 221.171875 84.96875 220.585938 86.554688 219.921875 C 88.136719 219.261719 89.683594 218.519531 91.195312 217.703125 C 92.707031 216.890625 94.175781 216 95.597656 215.042969 C 97.023438 214.082031 98.394531 213.054688 99.71875 211.960938 C 101.042969 210.867188 102.308594 209.710938 103.515625 208.492188 C 104.726562 207.273438 105.871094 205.996094 106.957031 204.664062 C 108.039062 203.335938 109.054688 201.953125 110.003906 200.523438 C 110.953125 199.089844 111.828125 197.617188 112.632812 196.101562 C 113.433594 194.582031 114.160156 193.03125 114.8125 191.441406 C 115.460938 189.855469 116.03125 188.238281 116.523438 186.59375 C 117.015625 184.949219 117.425781 183.285156 117.753906 181.601562 C 118.078125 179.917969 118.324219 178.21875 118.484375 176.511719 C 118.644531 174.804688 118.722656 173.089844 118.714844 171.375 C 118.707031 169.660156 118.617188 167.949219 118.441406 166.242188 Z M 118.441406 166.242188 " fill-opacity="1" fill-rule="nonzero"/></g><g clip-path="url(#fc5bd81972)"><path fill="#48faaa" d="M 83.441406 163.1875 C 83.441406 163.988281 83.363281 164.78125 83.203125 165.570312 C 83.042969 166.355469 82.808594 167.117188 82.492188 167.859375 C 82.179688 168.601562 81.796875 169.304688 81.339844 169.972656 C 80.886719 170.636719 80.371094 171.253906 79.792969 171.820312 C 79.210938 172.386719 78.582031 172.894531 77.902344 173.339844 C 77.222656 173.785156 76.503906 174.160156 75.746094 174.46875 C 74.988281 174.773438 74.210938 175.007812 73.40625 175.164062 C 72.605469 175.320312 71.792969 175.398438 70.976562 175.398438 C 70.15625 175.398438 69.347656 175.320312 68.542969 175.164062 C 67.742188 175.007812 66.960938 174.773438 66.203125 174.46875 C 65.449219 174.160156 64.730469 173.785156 64.050781 173.339844 C 63.367188 172.894531 62.738281 172.386719 62.160156 171.820312 C 61.582031 171.253906 61.0625 170.636719 60.609375 169.972656 C 60.15625 169.304688 59.769531 168.601562 59.457031 167.859375 C 59.144531 167.117188 58.90625 166.355469 58.746094 165.570312 C 58.589844 164.78125 58.507812 163.988281 58.507812 163.1875 C 58.507812 162.386719 58.589844 161.589844 58.746094 160.804688 C 58.90625 160.019531 59.144531 159.253906 59.457031 158.515625 C 59.769531 157.773438 60.15625 157.070312 60.609375 156.402344 C 61.0625 155.738281 61.582031 155.121094 62.160156 154.550781 C 62.738281 153.984375 63.367188 153.480469 64.050781 153.035156 C 64.730469 152.589844 65.449219 152.210938 66.203125 151.90625 C 66.960938 151.597656 67.742188 151.367188 68.542969 151.210938 C 69.347656 151.054688 70.15625 150.976562 70.976562 150.976562 C 71.792969 150.976562 72.605469 151.054688 73.40625 151.210938 C 74.210938 151.367188 74.988281 151.597656 75.746094 151.90625 C 76.503906 152.210938 77.222656 152.589844 77.902344 153.035156 C 78.582031 153.480469 79.210938 153.984375 79.792969 154.550781 C 80.371094 155.121094 80.886719 155.738281 81.339844 156.402344 C 81.796875 157.070312 82.179688 157.773438 82.492188 158.515625 C 82.808594 159.253906 83.042969 160.019531 83.203125 160.804688 C 83.363281 161.589844 83.441406 162.386719 83.441406 163.1875 Z M 83.441406 163.1875 " fill-opacity="1" fill-rule="nonzero"/></g></svg>